<svg width="83" height="55" viewBox="0 0 83 55" fill="none" xmlns="http://www.w3.org/2000/svg">
<g clip-path="url(#clip0_1292_1160)">
<path d="M8.26899 36.1859C8.0658 36.0233 7.84059 35.8806 7.59151 35.7598C7.343 35.6374 7.06774 35.5382 6.76503 35.4616C6.46348 35.3848 6.13936 35.3461 5.79613 35.3461C5.2366 35.3461 4.7146 35.4319 4.23134 35.604C3.74869 35.7753 3.32859 36.0388 2.9717 36.3961C2.61536 36.7523 2.3359 37.2035 2.13271 37.7497C1.93013 38.2955 1.8264 38.9435 1.8264 39.6925C1.8264 40.3516 1.91817 40.9477 2.09872 41.4802C2.27927 42.0124 2.54323 42.4627 2.89182 42.8274C3.23865 43.1929 3.6629 43.4752 4.16465 43.6741C4.66518 43.8727 5.23246 43.9719 5.86405 43.9719C6.05473 43.9719 6.25255 43.9627 6.4611 43.9442C6.66789 43.9267 6.86931 43.8996 7.06298 43.8635C7.2572 43.8272 7.43836 43.7816 7.60518 43.728C7.77206 43.6741 7.91503 43.611 8.03188 43.538C8.04018 43.2679 8.04731 42.9969 8.05213 42.7259C8.0569 42.4552 8.05927 42.18 8.05927 41.8998C8.05927 41.5847 8.05213 41.2685 8.0378 40.9513C8.02468 40.6369 8.00918 40.334 7.9913 40.0454C8.21658 40.0904 8.43349 40.1127 8.64206 40.1127C8.74096 40.1127 8.84103 40.1077 8.93994 40.0996C9.03885 40.0904 9.13422 40.0716 9.22422 40.0454C9.20573 40.2527 9.19261 40.58 9.18309 41.0257C9.17474 41.4733 9.16998 42.0618 9.16998 42.7941C9.16998 42.9743 9.17235 43.1568 9.17711 43.3424C9.18071 43.5279 9.18309 43.7101 9.18309 43.8906C8.99357 43.9627 8.75646 44.0366 8.47279 44.114C8.18796 44.1911 7.88525 44.2539 7.56467 44.3037C7.24408 44.3528 6.92295 44.398 6.60175 44.4391C6.28238 44.4799 5.99157 44.4999 5.72938 44.4999C4.92499 44.4999 4.20095 44.4029 3.55564 44.2093C2.9097 44.0148 2.36092 43.7149 1.90865 43.3078C1.457 42.9016 1.10956 42.3968 0.866471 41.792C0.621547 41.1866 0.5 40.487 0.5 39.6925C0.5 38.9257 0.625147 38.2419 0.8802 37.6409C1.1322 37.0412 1.48915 36.5334 1.94917 36.1189C2.4104 35.7029 2.96694 35.3869 3.62239 35.1701C4.27723 34.9533 5.00181 34.8452 5.79613 34.8452C6.25737 34.8452 6.66551 34.8705 7.02246 34.9196C7.37936 34.9697 7.69579 35.0346 7.97104 35.1156C8.24635 35.1969 8.48829 35.2836 8.69563 35.3735C8.90302 35.4631 9.08833 35.5492 9.25101 35.6308C9.17833 35.7571 9.11396 35.9197 9.05496 36.1189C8.99596 36.3167 8.95782 36.5019 8.93994 36.6731H8.77672C8.64206 36.5111 8.47279 36.3482 8.26899 36.1859Z" fill="#007736"/>
<path d="M10.7449 36.7748C10.7217 36.2015 10.6966 35.6172 10.6692 35.021C10.9314 35.0398 11.1888 35.0553 11.442 35.0693C11.6947 35.0821 11.9521 35.089 12.2143 35.089C12.4759 35.089 12.7333 35.0782 12.986 35.0553C13.2386 35.0333 13.496 35.021 13.7582 35.021C14.1366 35.021 14.4983 35.058 14.8415 35.1294C15.1847 35.2018 15.4851 35.3209 15.743 35.4892C15.9999 35.6557 16.2037 35.8746 16.3527 36.1452C16.5028 36.4157 16.5761 36.7545 16.5761 37.1607C16.5761 37.5937 16.479 37.966 16.2841 38.2781C16.0905 38.5884 15.8527 38.846 15.5738 39.0497C15.2932 39.2531 14.9929 39.4109 14.6723 39.5238C14.3523 39.6363 14.0615 39.7111 13.7987 39.7475C13.9066 39.8821 14.0562 40.0717 14.2456 40.3156C14.4351 40.5592 14.6484 40.8284 14.8826 41.1215C15.118 41.4151 15.3623 41.7216 15.615 42.042C15.8664 42.3633 16.1107 42.6698 16.3455 42.9631C16.5815 43.2564 16.8019 43.525 17.0105 43.7686C17.2167 44.0128 17.3835 44.1975 17.511 44.3241C17.3752 44.3056 17.2399 44.2966 17.1046 44.2966H16.3056C16.1691 44.2966 16.0386 44.3056 15.9129 44.3241C15.7764 44.1343 15.5715 43.8502 15.2956 43.4714C15.0203 43.0911 14.7152 42.685 14.3815 42.2519C14.0466 41.8184 13.7069 41.3877 13.3578 40.9589C13.011 40.5303 12.6922 40.1665 12.4038 39.8693H11.8884V40.8577C11.8884 41.4529 11.9003 42.0405 11.9223 42.6176C11.9449 43.1951 11.97 43.7639 11.9974 44.3241C11.7895 44.3056 11.5678 44.2966 11.333 44.2966C11.0982 44.2966 10.8778 44.3056 10.6692 44.3241C10.6966 43.7639 10.7217 43.1951 10.7449 42.6176C10.7663 42.0405 10.7771 41.4529 10.7771 40.8577V38.5279C10.7771 37.9326 10.7663 37.3484 10.7449 36.7748ZM12.3019 39.3546C12.4514 39.3633 12.6153 39.368 12.7964 39.368C13.0754 39.368 13.3673 39.3368 13.6706 39.2736C13.9727 39.2102 14.2504 39.1 14.503 38.9419C14.7557 38.7834 14.9654 38.5714 15.1329 38.3049C15.3004 38.0393 15.3849 37.703 15.3849 37.2965C15.3849 36.944 15.3182 36.653 15.1871 36.4234C15.0566 36.1926 14.8868 36.01 14.6794 35.8746C14.4709 35.7387 14.2456 35.6467 14.0025 35.5967C13.7582 35.5472 13.5186 35.5231 13.2839 35.5231C12.9675 35.5231 12.7071 35.5294 12.4986 35.5431C12.2912 35.5565 12.1148 35.572 11.97 35.5904C11.9521 36.0866 11.9337 36.5786 11.9158 37.0657C11.8973 37.5532 11.8884 38.0404 11.8884 38.5279V39.3002C12.0159 39.3272 12.1535 39.3457 12.3019 39.3546Z" fill="#007736"/>
<path d="M18.3059 36.7545C18.2832 36.1768 18.2582 35.5994 18.2314 35.021C18.6372 35.0398 19.0424 35.0553 19.4434 35.0693C19.8444 35.0821 20.2497 35.089 20.656 35.089C21.063 35.089 21.464 35.0821 21.8621 35.0693C22.259 35.0553 22.6617 35.0398 23.0676 35.021C23.0407 35.1565 23.027 35.2917 23.027 35.4273C23.027 35.5633 23.0407 35.6988 23.0676 35.8343C22.7779 35.8162 22.5146 35.798 22.2745 35.7795C22.0349 35.7617 21.7828 35.7435 21.5171 35.725C21.2496 35.7071 20.9587 35.6914 20.6423 35.6783C20.3259 35.6655 19.947 35.6583 19.5048 35.6583C19.4953 35.9466 19.4846 36.2218 19.4714 36.4841C19.4572 36.7462 19.4506 37.0431 19.4506 37.3772C19.4506 37.7293 19.453 38.0726 19.4572 38.4067C19.4613 38.7406 19.4643 38.9934 19.4643 39.1652C19.8612 39.1652 20.2187 39.1602 20.5333 39.1512C20.8503 39.1423 21.1393 39.131 21.4021 39.117C21.6631 39.1036 21.905 39.0905 22.1267 39.0765C22.3465 39.0628 22.5569 39.0476 22.7559 39.0291C22.7285 39.1652 22.7154 39.3046 22.7154 39.45C22.7154 39.5846 22.7285 39.72 22.7559 39.8558C22.5217 39.8285 22.2476 39.8064 21.9372 39.7885C21.6243 39.7704 21.3127 39.7584 21.0016 39.7537C20.6906 39.7501 20.3968 39.7448 20.1215 39.7403C19.8444 39.7355 19.627 39.7337 19.4643 39.7337C19.4643 39.8144 19.4613 39.9026 19.4572 39.9976C19.453 40.092 19.4506 40.2117 19.4506 40.3568V41.6966C19.4506 42.2111 19.453 42.6364 19.4572 42.9699C19.4613 43.3035 19.4691 43.5566 19.4786 43.7281H20.4255C20.7693 43.7281 21.1048 43.7216 21.4355 43.7073C21.7644 43.6945 22.076 43.6766 22.371 43.6537C22.663 43.6313 22.918 43.5974 23.1349 43.5521C23.117 43.6155 23.1063 43.685 23.1015 43.7621C23.0967 43.838 23.095 43.9089 23.095 43.972C23.095 44.1165 23.1086 44.2335 23.1349 44.3241C22.7285 44.3056 22.3245 44.2966 21.9229 44.2966H19.4643C19.0579 44.2966 18.6467 44.3056 18.2314 44.3241C18.2582 43.7457 18.2832 43.1709 18.3059 42.5977C18.3286 42.0244 18.3393 41.4395 18.3393 40.8439V38.5149C18.3393 37.9198 18.3286 37.3326 18.3059 36.7545Z" fill="#007736"/>
<path d="M24.1407 36.7545C24.1192 36.1768 24.0942 35.5994 24.068 35.021C24.4744 35.0398 24.8772 35.0553 25.28 35.0693C25.6811 35.0821 26.0856 35.089 26.492 35.089C26.899 35.089 27.3 35.0821 27.698 35.0693C28.0955 35.0553 28.4971 35.0398 28.9029 35.021C28.8767 35.1565 28.8636 35.2917 28.8636 35.4273C28.8636 35.5633 28.8767 35.6988 28.9029 35.8343C28.6145 35.8162 28.3506 35.798 28.1116 35.7795C27.8721 35.7617 27.6182 35.7435 27.3518 35.725C27.0855 35.7071 26.7947 35.6914 26.4789 35.6783C26.1625 35.6655 25.783 35.6583 25.3408 35.6583C25.3312 35.9466 25.3205 36.2218 25.3074 36.4841C25.2931 36.7462 25.2872 37.0431 25.2872 37.3772C25.2872 37.7293 25.2883 38.0726 25.2931 38.4067C25.2979 38.7406 25.3002 38.9934 25.3002 39.1652C25.6977 39.1652 26.0547 39.1602 26.3699 39.1512C26.6875 39.1423 26.9758 39.131 27.2369 39.117C27.4991 39.1036 27.7409 39.0905 27.9626 39.0765C28.1831 39.0628 28.3929 39.0476 28.5931 39.0291C28.565 39.1652 28.5508 39.3046 28.5508 39.45C28.5508 39.5846 28.565 39.72 28.5931 39.8558C28.3571 39.8285 28.083 39.8064 27.7719 39.7885C27.4609 39.7704 27.1493 39.7584 26.8376 39.7537C26.5266 39.7501 26.2322 39.7448 25.9569 39.7403C25.6811 39.7355 25.4624 39.7337 25.3002 39.7337C25.3002 39.8144 25.2979 39.9026 25.2931 39.9976C25.2883 40.092 25.2872 40.2117 25.2872 40.3568V41.6966C25.2872 42.2111 25.2883 42.6364 25.2931 42.9699C25.2979 43.3035 25.305 43.5566 25.3134 43.7281H26.262C26.6041 43.7281 26.9413 43.7216 27.2714 43.7073C27.6009 43.6945 27.9126 43.6766 28.2058 43.6537C28.4989 43.6313 28.754 43.5974 28.9709 43.5521C28.953 43.6155 28.9423 43.685 28.9375 43.7621C28.9327 43.838 28.9304 43.9089 28.9304 43.972C28.9304 44.1165 28.9446 44.2335 28.9709 44.3241C28.565 44.3056 28.1604 44.2966 27.7588 44.2966H25.3002C24.8927 44.2966 24.4827 44.3056 24.068 44.3241C24.0942 43.7457 24.1192 43.1709 24.1407 42.5977C24.1645 42.0244 24.1753 41.4395 24.1753 40.8439V38.5149C24.1753 37.9198 24.1645 37.3326 24.1407 36.7545Z" fill="#007736"/>
<path d="M34.3201 40.8104C33.1456 39.5511 31.9717 38.2976 30.7978 37.0522C30.7883 37.3053 30.7788 37.6439 30.7704 38.0674C30.7621 38.4927 30.7567 39.0698 30.7567 39.8009C30.7567 39.9906 30.7591 40.2259 30.7633 40.5049C30.7681 40.7854 30.7728 41.0785 30.7776 41.3849C30.7817 41.6922 30.7883 42.004 30.7978 42.3194C30.8062 42.6363 30.8157 42.9293 30.8252 43.2C30.8324 43.4713 30.842 43.7071 30.8515 43.9109C30.8598 44.1139 30.8694 44.2515 30.8789 44.3239C30.7347 44.3055 30.5762 44.2965 30.4046 44.2965C30.224 44.2965 30.0578 44.3055 29.9028 44.3239C29.9207 44.2334 29.941 44.0669 29.9642 43.8227C29.9869 43.5791 30.0071 43.2882 30.025 42.9487C30.0429 42.6113 30.0637 42.2429 30.0864 41.8465C30.109 41.4486 30.1269 41.0514 30.14 40.6544C30.1531 40.2574 30.165 39.8691 30.1734 39.4897C30.1829 39.1106 30.1877 38.7717 30.1877 38.4748C30.1877 37.6076 30.1853 36.8625 30.1805 36.2398C30.1769 35.6171 30.165 35.1519 30.1471 34.8452H30.3641C30.9146 35.4414 31.5045 36.0793 32.1314 36.7613C32.7594 37.4429 33.3822 38.1151 34.0013 38.7789C34.6198 39.4421 35.2061 40.0692 35.762 40.661C36.318 41.2521 36.8031 41.7557 37.2184 42.1702V40.3292C37.2184 39.3819 37.2112 38.4581 37.1993 37.5599C37.1844 36.6624 37.1558 35.8161 37.1094 35.0209C37.2917 35.0664 37.443 35.0888 37.5705 35.0888C37.6796 35.0888 37.8232 35.0664 38.0043 35.0209C37.9865 35.2198 37.9662 35.5176 37.943 35.9152C37.9197 36.3131 37.8971 36.7362 37.8756 37.1883C37.853 37.6392 37.8327 38.0808 37.8148 38.5147C37.797 38.9483 37.7875 39.2955 37.7875 39.5576V40.3697C37.7875 40.677 37.7898 40.9969 37.7946 41.331C37.7994 41.6652 37.803 42.0014 37.8077 42.3402C37.8125 42.6779 37.8172 42.9951 37.822 43.2881C37.8256 43.5815 37.828 43.8361 37.828 44.0538V44.4999H37.6384C36.6005 43.2992 35.4933 42.0699 34.3201 40.8104Z" fill="#007736"/>
<path d="M42.5961 40.7485V41.5881H39.2234V40.7485H42.5961Z" fill="#007736"/>
<path d="M43.7354 43.0574C43.8558 43.225 44.006 43.376 44.1823 43.5112C44.3575 43.6464 44.5625 43.7578 44.7973 43.8427C45.0332 43.9293 45.2942 43.9719 45.5838 43.9719C45.8811 43.9719 46.1505 43.9201 46.3894 43.8159C46.6284 43.7122 46.8315 43.5722 46.9996 43.3963C47.1665 43.2203 47.294 43.0127 47.3852 42.7739C47.4751 42.5341 47.521 42.2786 47.521 42.0079C47.521 41.5934 47.4143 41.2634 47.2022 41.0198C46.9901 40.7756 46.7267 40.5734 46.4097 40.4105C46.0939 40.2479 45.7531 40.0996 45.3877 39.9641C45.0213 39.8283 44.681 39.6585 44.3647 39.4552C44.0488 39.2529 43.7843 38.9933 43.5721 38.677C43.3588 38.3613 43.2534 37.9373 43.2534 37.4045C43.2534 37.0248 43.3219 36.6805 43.4559 36.3684C43.5924 36.0567 43.789 35.7883 44.0452 35.5632C44.3039 35.3372 44.6131 35.1608 44.9748 35.0346C45.3347 34.9086 45.7423 34.8452 46.194 34.8452C46.6266 34.8452 47.002 34.897 47.3172 35.0006C47.6336 35.1046 47.928 35.2648 48.1985 35.4819C48.1175 35.6353 48.049 35.7979 47.9953 35.9694C47.9399 36.1403 47.8863 36.3571 47.8327 36.6192H47.6694C47.6253 36.4923 47.5639 36.3548 47.4871 36.2065C47.4096 36.0567 47.3065 35.9197 47.176 35.7934C47.0443 35.6668 46.8888 35.5611 46.7076 35.4748C46.5277 35.3884 46.3114 35.3461 46.0569 35.3461C45.8043 35.3461 45.5719 35.3869 45.3603 35.4682C45.1476 35.5492 44.9629 35.6654 44.8044 35.8131C44.6465 35.9616 44.5255 36.1403 44.4391 36.3482C44.3527 36.5564 44.3098 36.7809 44.3098 37.0248C44.3098 37.4501 44.4165 37.783 44.6286 38.0272C44.8402 38.2711 45.1053 38.4772 45.4217 38.6437C45.7376 38.8104 46.0784 38.9599 46.4443 39.0904C46.8095 39.2214 47.151 39.3819 47.4668 39.5707C47.7832 39.7607 48.0471 40.004 48.2581 40.3015C48.4702 40.5999 48.5775 40.9969 48.5775 41.4939C48.5775 41.9087 48.503 42.3018 48.3546 42.6717C48.2057 43.0419 47.9887 43.365 47.7039 43.6396C47.4191 43.9151 47.0717 44.1271 46.6611 44.2765C46.25 44.4252 45.7816 44.4999 45.2584 44.4999C44.6995 44.4999 44.2455 44.4252 43.8975 44.2765C43.5495 44.1271 43.2587 43.9576 43.0239 43.7685C43.1038 43.5613 43.161 43.3734 43.1926 43.2072C43.2236 43.0395 43.2534 42.8251 43.2801 42.5636H43.444C43.5149 42.7259 43.6127 42.8909 43.7354 43.0574Z" fill="#007736"/>
<path d="M56.5062 36.7748C56.4829 36.2015 56.4592 35.6172 56.4317 35.021C56.5491 35.0398 56.6617 35.0553 56.7708 35.0693C56.878 35.0821 56.9877 35.089 57.0961 35.089C57.2045 35.089 57.3118 35.0821 57.4215 35.0693C57.5287 35.0553 57.6414 35.0398 57.7599 35.021C57.7325 35.6172 57.7075 36.2015 57.6849 36.7748C57.6628 37.3484 57.6509 37.9326 57.6509 38.5279V40.8577C57.6509 41.4529 57.6628 42.0405 57.6849 42.6176C57.7075 43.1951 57.7325 43.7639 57.7599 44.3241C57.5514 44.3056 57.3309 44.2966 57.0961 44.2966C56.8602 44.2966 56.6397 44.3056 56.4317 44.3241C56.4592 43.7639 56.4829 43.1951 56.5062 42.6176C56.5288 42.0405 56.5408 41.4529 56.5408 40.8577V39.6384C56.0533 39.6301 55.5802 39.623 55.1249 39.6185C54.6685 39.614 54.1966 39.6119 53.7092 39.6119C53.2205 39.6119 52.7486 39.614 52.2934 39.6185C51.837 39.623 51.365 39.6301 50.8776 39.6384V40.8577C50.8776 41.4529 50.8883 42.0405 50.9116 42.6176C50.9342 43.1951 50.958 43.7639 50.986 44.3241C50.7787 44.3056 50.557 44.2966 50.3222 44.2966C50.0875 44.2966 49.8658 44.3056 49.6584 44.3241C49.6865 43.7639 49.7096 43.1951 49.7329 42.6176C49.7555 42.0405 49.768 41.4529 49.768 40.8577V38.5279C49.768 37.9326 49.7555 37.3484 49.7329 36.7748C49.7096 36.2015 49.6865 35.6172 49.6584 35.021C49.7764 35.0398 49.8884 35.0553 49.9969 35.0693C50.1053 35.0821 50.215 35.089 50.3222 35.089C50.4307 35.089 50.5391 35.0821 50.6482 35.0693C50.756 35.0553 50.8687 35.0398 50.986 35.021C50.958 35.6172 50.9342 36.2015 50.9116 36.7748C50.8883 37.3484 50.8776 37.9326 50.8776 38.5279V39.0024C51.365 39.0113 51.837 39.0208 52.2934 39.0291C52.7486 39.0386 53.2205 39.0422 53.7092 39.0422C54.1966 39.0422 54.6685 39.0386 55.1249 39.0291C55.5802 39.0208 56.0533 39.0113 56.5408 39.0024V38.5279C56.5408 37.9326 56.5288 37.3484 56.5062 36.7748Z" fill="#007736"/>
<path d="M59.1959 37.6409C59.4438 37.0412 59.7918 36.5334 60.2393 36.1189C60.6856 35.7029 61.2207 35.3869 61.844 35.1701C62.4673 34.9533 63.1484 34.8452 63.8896 34.8452C64.6392 34.8452 65.3245 34.9533 65.9484 35.1701C66.5723 35.3869 67.1068 35.7029 67.5537 36.1189C68.0018 36.5334 68.3486 37.0412 68.5965 37.6409C68.8461 38.2419 68.9701 38.9257 68.9701 39.6925C68.9701 40.4602 68.8461 41.1437 68.5965 41.7444C68.3486 42.345 68.0018 42.8528 67.5537 43.2679C67.1068 43.6834 66.5723 43.9922 65.9484 44.1946C65.3245 44.398 64.6392 44.4999 63.8896 44.4999C63.1484 44.4999 62.4673 44.398 61.844 44.1946C61.2207 43.9922 60.6856 43.6834 60.2393 43.2679C59.7918 42.8528 59.4438 42.345 59.1959 41.7444C58.9469 41.1437 58.8229 40.4602 58.8229 39.6925C58.8229 38.9257 58.9469 38.2419 59.1959 37.6409ZM67.3583 37.7497C67.1676 37.2035 66.9042 36.7523 66.5657 36.3961C66.2267 36.0388 65.8292 35.7753 65.3733 35.604C64.9175 35.4319 64.4223 35.3461 63.8896 35.3461C63.3647 35.3461 62.8766 35.4319 62.4202 35.604C61.9644 35.7753 61.5663 36.0388 61.2279 36.3961C60.8883 36.7523 60.6248 37.2035 60.4354 37.7497C60.2447 38.2955 60.1506 38.9435 60.1506 39.6925C60.1506 40.4415 60.2447 41.0895 60.4354 41.6356C60.6248 42.1824 60.8883 42.6339 61.2279 42.9898C61.5663 43.3465 61.9644 43.611 62.4202 43.7816C62.8766 43.9534 63.3647 44.0392 63.8896 44.0392C64.4223 44.0392 64.9175 43.9534 65.3733 43.7816C65.8292 43.611 66.2267 43.3465 66.5657 42.9898C66.9042 42.6339 67.1676 42.1824 67.3583 41.6356C67.5477 41.0895 67.6419 40.4415 67.6419 39.6925C67.6419 38.9435 67.5477 38.2955 67.3583 37.7497Z" fill="#007736"/>
<path d="M70.107 36.7748C70.0856 36.2015 70.0605 35.6172 70.0331 35.021C70.2953 35.0398 70.5527 35.0553 70.8054 35.0693C71.058 35.0821 71.316 35.089 71.5782 35.089C71.8404 35.089 72.0966 35.0782 72.3505 35.0553C72.6031 35.0333 72.8605 35.021 73.1222 35.021C73.5005 35.021 73.8622 35.058 74.2054 35.1294C74.5498 35.2018 74.849 35.3209 75.1064 35.4892C75.3638 35.6557 75.5676 35.8746 75.7172 36.1452C75.8661 36.4157 75.94 36.7545 75.94 37.1607C75.94 37.5937 75.8429 37.966 75.6493 38.2781C75.4538 38.5884 75.2178 38.846 74.9372 39.0497C74.6571 39.2531 74.3568 39.4109 74.0368 39.5238C73.7156 39.6363 73.4249 39.7111 73.1621 39.7475C73.2717 39.8821 73.42 40.0717 73.609 40.3156C73.7996 40.5592 74.0118 40.8284 74.2465 41.1215C74.4813 41.4151 74.7256 41.7216 74.9783 42.042C75.2309 42.3633 75.4741 42.6698 75.71 42.9631C75.9436 43.2564 76.1664 43.525 76.3738 43.7686C76.5812 44.0128 76.7486 44.1975 76.8744 44.3241C76.7391 44.3056 76.6038 44.2966 76.4685 44.2966H75.6701C75.5342 44.2966 75.402 44.3056 75.2762 44.3241C75.1398 44.1343 74.9348 43.8502 74.6595 43.4714C74.3842 43.0911 74.0785 42.685 73.7442 42.2519C73.4111 41.8184 73.0703 41.3877 72.7217 40.9589C72.3743 40.5303 72.0555 40.1665 71.7671 39.8693H71.2535V40.8577C71.2535 41.4529 71.2642 42.0405 71.2857 42.6176C71.3083 43.1951 71.3339 43.7639 71.3613 44.3241C71.1528 44.3056 70.9329 44.2966 70.6963 44.2966C70.4615 44.2966 70.2411 44.3056 70.0331 44.3241C70.0605 43.7639 70.0856 43.1951 70.107 42.6176C70.1302 42.0405 70.1416 41.4529 70.1416 40.8577V38.5279C70.1416 37.9326 70.1302 37.3484 70.107 36.7748ZM71.6652 39.3546C71.8154 39.3633 71.9792 39.368 72.1598 39.368C72.4405 39.368 72.7312 39.3368 73.0345 39.2736C73.3372 39.2102 73.6143 39.1 73.8664 38.9419C74.1208 38.7834 74.33 38.5714 74.4962 38.3049C74.663 38.0393 74.7483 37.703 74.7483 37.2965C74.7483 36.944 74.6827 36.653 74.5505 36.4234C74.4199 36.1926 74.2513 36.01 74.0427 35.8746C73.8354 35.7387 73.609 35.6467 73.3659 35.5967C73.1222 35.5472 72.8826 35.5231 72.649 35.5231C72.3326 35.5231 72.0704 35.5294 71.8618 35.5431C71.6551 35.5565 71.4781 35.572 71.3339 35.5904C71.316 36.0866 71.2975 36.5786 71.2797 37.0657C71.2618 37.5532 71.2535 38.0404 71.2535 38.5279V39.3002C71.3792 39.3272 71.5168 39.3457 71.6652 39.3546Z" fill="#007736"/>
<path d="M77.6698 36.7545C77.6472 36.1768 77.6227 35.5994 77.5953 35.021C78.0017 35.0398 78.4063 35.0553 78.8073 35.0693C79.2096 35.0821 79.6136 35.089 80.0205 35.089C80.4269 35.089 80.828 35.0821 81.226 35.0693C81.6235 35.0553 82.0262 35.0398 82.4321 35.021C82.4058 35.1565 82.3909 35.2917 82.3909 35.4273C82.3909 35.5633 82.4058 35.6988 82.4321 35.8343C82.1419 35.8162 81.8791 35.798 81.639 35.7795C81.3994 35.7617 81.1461 35.7435 80.881 35.725C80.6134 35.7071 80.3221 35.6914 80.0063 35.6783C79.6898 35.6655 79.3115 35.6583 78.8693 35.6583C78.8586 35.9466 78.8485 36.2218 78.8348 36.4841C78.8204 36.7462 78.8145 37.0431 78.8145 37.3772C78.8145 37.7293 78.8169 38.0726 78.8204 38.4067C78.8252 38.7406 78.8282 38.9934 78.8282 39.1652C79.2257 39.1652 79.5814 39.1602 79.8984 39.1512C80.2148 39.1423 80.5032 39.131 80.766 39.117C81.027 39.1036 81.2689 39.0905 81.49 39.0765C81.7116 39.0628 81.922 39.0476 82.121 39.0291C82.093 39.1652 82.0799 39.3046 82.0799 39.45C82.0799 39.5846 82.093 39.72 82.121 39.8558C81.8844 39.8285 81.6127 39.8064 81.3011 39.7885C80.9894 39.7704 80.6772 39.7584 80.3656 39.7537C80.0545 39.7501 79.7607 39.7448 79.4849 39.7403C79.2096 39.7355 78.9909 39.7337 78.8282 39.7337C78.8282 39.8144 78.8252 39.9026 78.8204 39.9976C78.8169 40.092 78.8145 40.2117 78.8145 40.3568V41.6966C78.8145 42.2111 78.8169 42.6364 78.8204 42.9699C78.8252 43.3035 78.8329 43.5566 78.8407 43.7281H79.7893C80.1332 43.7281 80.4699 43.7216 80.7994 43.7073C81.1289 43.6945 81.4399 43.6766 81.7337 43.6537C82.0281 43.6313 82.2819 43.5974 82.5 43.5521C82.4809 43.6155 82.4702 43.685 82.4654 43.7621C82.4606 43.838 82.4582 43.9089 82.4582 43.972C82.4582 44.1165 82.4726 44.2335 82.5 44.3241C82.093 44.3056 81.6878 44.2966 81.2862 44.2966H78.8282C78.4218 44.2966 78.0113 44.3056 77.5953 44.3241C77.6227 43.7457 77.6472 43.1709 77.6698 42.5977C77.6925 42.0244 77.7044 41.4395 77.7044 40.8439V38.5149C77.7044 37.9198 77.6925 37.3326 77.6698 36.7545Z" fill="#007736"/>
<path d="M1.5982 48.3418C1.58446 47.996 1.5708 47.6499 1.55353 47.3042C1.69533 47.3152 1.83775 47.3251 1.9837 47.3325C2.1285 47.3408 2.27213 47.3447 2.41278 47.3447C2.55397 47.3447 2.69639 47.3384 2.8424 47.3251C2.98719 47.3119 3.13138 47.3042 3.27202 47.3042C3.50439 47.3042 3.72252 47.3214 3.92863 47.3572C4.13365 47.3929 4.31481 47.4546 4.4709 47.5436C4.6282 47.6324 4.75274 47.753 4.8439 47.9043C4.93567 48.0549 4.98155 48.245 4.98155 48.4707C4.98155 48.8709 4.85586 49.1836 4.60556 49.4108C4.35411 49.6372 4.02577 49.7962 3.62001 49.8882V49.9046C4.10143 49.9266 4.48041 50.0425 4.75872 50.2527C5.03702 50.4633 5.17644 50.8016 5.17644 51.2652C5.17644 51.5681 5.11445 51.8218 4.98991 52.0268C4.86537 52.2325 4.70331 52.3987 4.50366 52.5247C4.30346 52.6521 4.08362 52.7411 3.84406 52.793C3.60329 52.8445 3.36379 52.8692 3.12662 52.8692C2.99672 52.8692 2.86565 52.8662 2.73336 52.8608C2.60047 52.8561 2.46995 52.8531 2.34004 52.8531H1.94679C1.81511 52.8531 1.68343 52.8588 1.55353 52.8692C1.5708 52.5234 1.58446 52.1801 1.5982 51.8367C1.6107 51.4939 1.61845 51.1434 1.61845 50.7876V49.3941C1.61845 49.0383 1.6107 48.6866 1.5982 48.3418ZM3.28453 49.7351C3.47045 49.6973 3.63666 49.6336 3.78268 49.5437C3.92863 49.4552 4.04664 49.3367 4.13481 49.1883C4.2242 49.0392 4.26948 48.8519 4.26948 48.6241C4.26948 48.4028 4.22841 48.2271 4.14793 48.094C4.0669 47.9623 3.96324 47.8593 3.83869 47.7863C3.71416 47.7134 3.57473 47.6654 3.41743 47.6413C3.26006 47.6163 3.10514 47.6041 2.94784 47.6041C2.80725 47.6041 2.68803 47.6079 2.59095 47.6163C2.49381 47.6246 2.40802 47.6335 2.33113 47.6443C2.32162 47.9043 2.31088 48.1607 2.29953 48.4138C2.28763 48.6684 2.28287 48.9242 2.28287 49.1836V49.7908H2.7214C2.9097 49.7908 3.09801 49.7724 3.28453 49.7351ZM2.29953 51.7352C2.31088 52.005 2.32162 52.2781 2.33113 52.5535C2.43419 52.5643 2.55574 52.5738 2.69639 52.5818C2.83642 52.5902 2.98006 52.594 3.12662 52.594C3.29881 52.594 3.46508 52.5643 3.62477 52.5053C3.78329 52.4454 3.92271 52.3579 4.04188 52.242C4.16105 52.1253 4.2552 51.9827 4.32549 51.8126C4.39585 51.6426 4.43038 51.4499 4.43038 51.2331C4.43038 51.0005 4.38871 50.8111 4.30523 50.6619C4.22066 50.5133 4.10143 50.3972 3.94413 50.314C3.78744 50.2298 3.60091 50.172 3.38167 50.1392C3.16238 50.1077 2.91806 50.0907 2.64873 50.0907H2.28287V50.9177C2.28287 51.1923 2.28763 51.4651 2.29953 51.7352Z" fill="#007736"/>
<path d="M8.04016 50.9131C8.04913 50.7109 8.05212 50.5084 8.05212 50.3098C8.05212 50.1204 8.0509 49.9152 8.04913 49.6939C8.04614 49.4724 8.04138 49.2484 8.0354 49.0215C8.17128 49.0486 8.28448 49.0617 8.37746 49.0617C8.46326 49.0617 8.57345 49.0486 8.70873 49.0215C8.68133 49.3455 8.66229 49.7008 8.64734 50.087C8.63483 50.4733 8.6277 50.869 8.6277 51.2735C8.6277 51.5546 8.65271 51.769 8.70043 51.9173C8.74924 52.0662 8.80947 52.1782 8.87854 52.2535C8.95426 52.3402 9.04957 52.4113 9.16636 52.4679C9.28199 52.5245 9.41903 52.5534 9.57572 52.5534C9.80338 52.5534 9.99168 52.5034 10.1436 52.4036C10.2944 52.3038 10.4058 52.1812 10.4749 52.0346C10.5136 51.9429 10.544 51.8649 10.5655 51.8C10.587 51.735 10.6036 51.6493 10.6179 51.5406C10.631 51.4328 10.6394 51.2872 10.6418 51.1028C10.6441 50.92 10.6454 50.6686 10.6454 50.35V49.6698C10.6454 49.551 10.6441 49.4372 10.6418 49.3294C10.6394 49.2213 10.6346 49.1186 10.6299 49.0215C10.6883 49.0322 10.746 49.0417 10.8003 49.0501C10.8539 49.0584 10.9099 49.0617 10.9701 49.0617C11.0285 49.0617 11.0863 49.0584 11.1399 49.0501C11.1942 49.0417 11.2478 49.0322 11.302 49.0215C11.2758 49.4429 11.2585 49.8491 11.2537 50.2413C11.2478 50.6317 11.246 51.0462 11.246 51.4843C11.246 51.7267 11.2478 51.965 11.2537 52.197C11.2585 52.4292 11.2668 52.6532 11.2782 52.8691C11.1697 52.8586 11.0649 52.853 10.9617 52.853C10.8598 52.853 10.7544 52.8586 10.6454 52.8691C10.6513 52.8211 10.6549 52.7693 10.6573 52.7154C10.6608 52.6618 10.662 52.6046 10.662 52.5453V52.197H10.6454C10.5047 52.4566 10.3242 52.6463 10.1031 52.7681C9.88142 52.8896 9.64071 52.9507 9.38205 52.9507C8.96018 52.9507 8.62946 52.8384 8.38875 52.6141C8.14804 52.3905 8.02826 52.0671 8.02826 51.6463C8.02826 51.3598 8.03187 51.1153 8.04016 50.9131Z" fill="#007736"/>
<path d="M14.3112 47.3202C14.3934 47.2395 14.4899 47.1987 14.6038 47.1987C14.7176 47.1987 14.8147 47.2395 14.8963 47.3202C14.9762 47.401 15.0167 47.4989 15.0167 47.6127C15.0167 47.7253 14.9762 47.8224 14.8963 47.904C14.8147 47.9846 14.7176 48.0245 14.6038 48.0245C14.4899 48.0245 14.3934 47.9846 14.3112 47.904C14.2313 47.8224 14.1908 47.7253 14.1908 47.6127C14.1908 47.4989 14.2313 47.401 14.3112 47.3202ZM14.2921 49.7708C14.2843 49.5031 14.2659 49.2536 14.2397 49.0213C14.391 49.0484 14.5114 49.0615 14.6038 49.0615C14.6949 49.0615 14.8182 49.0484 14.969 49.0213C14.9416 49.2536 14.9237 49.5031 14.9166 49.7708C14.9082 50.0377 14.9035 50.2938 14.9035 50.5359V51.3784C14.9035 51.6214 14.9082 51.8766 14.9166 52.1443C14.9237 52.4112 14.9416 52.653 14.969 52.8689C14.8445 52.8584 14.7223 52.8528 14.6038 52.8528C14.4851 52.8528 14.363 52.8584 14.2397 52.8689C14.2659 52.653 14.2843 52.4112 14.2921 52.1443C14.2992 51.8766 14.3028 51.6214 14.3028 51.3784V50.5359C14.3028 50.2938 14.2992 50.0377 14.2921 49.7708Z" fill="#007736"/>
<path d="M18.0378 48.4947C18.0354 48.2797 18.0306 48.0665 18.0259 47.855C18.0199 47.6442 18.0139 47.4432 18.005 47.2523C17.9973 47.0608 17.9877 46.8967 17.9758 46.7612C18.1272 46.7886 18.2493 46.8023 18.3405 46.8023C18.4329 46.8023 18.5538 46.7886 18.7063 46.7612C18.695 46.8967 18.6849 47.0608 18.6783 47.2523C18.6694 47.4432 18.6622 47.6442 18.6581 47.855C18.6515 48.0665 18.6467 48.2797 18.6443 48.4947C18.642 48.7109 18.6408 48.9111 18.6408 49.0945V50.5608C18.6408 50.7443 18.642 50.9444 18.6443 51.1603C18.6467 51.3768 18.6515 51.5897 18.6581 51.8C18.6622 52.0112 18.6694 52.2107 18.6783 52.3992C18.6849 52.5885 18.695 52.7452 18.7063 52.8691C18.5812 52.8587 18.4602 52.853 18.3405 52.853C18.2231 52.853 18.1009 52.8587 17.9758 52.8691C17.9877 52.7452 17.9973 52.5885 18.005 52.3992C18.0139 52.2107 18.0199 52.0112 18.0259 51.8C18.0306 51.5897 18.0354 51.3768 18.0378 51.1603C18.0401 50.9444 18.0425 50.7443 18.0425 50.5608V49.0945C18.0425 48.9111 18.0401 48.7109 18.0378 48.4947Z" fill="#007736"/>
<path d="M24.4488 52.0996C24.4041 52.186 24.3469 52.2791 24.2742 52.3792C24.2003 52.479 24.1098 52.5725 23.9983 52.6586C23.8881 52.7452 23.7582 52.8155 23.6056 52.8691C23.4549 52.9233 23.2785 52.9507 23.0783 52.9507C22.8739 52.9507 22.6725 52.9144 22.4747 52.845C22.2774 52.7744 22.1028 52.66 21.9479 52.5007C21.7941 52.3414 21.6702 52.1362 21.5761 51.8855C21.4808 51.6338 21.4343 51.3333 21.4343 50.981C21.4343 50.6367 21.4843 50.3366 21.5874 50.0826C21.6905 49.8291 21.8234 49.6168 21.989 49.4468C22.1541 49.2767 22.34 49.1501 22.548 49.0659C22.7559 48.9819 22.9657 48.9405 23.1766 48.9405C23.7754 48.9405 24.1908 49.2106 24.4231 49.7508H24.4399V48.9572C24.4399 48.7523 24.4386 48.5451 24.4369 48.3369C24.4327 48.1293 24.4304 47.9312 24.4285 47.7419C24.4244 47.5531 24.422 47.3747 24.4202 47.2067C24.4172 47.0396 24.4125 46.8913 24.4076 46.7612C24.4726 46.7728 24.5352 46.7815 24.5948 46.7901C24.6538 46.7981 24.7133 46.8023 24.7736 46.8023C24.832 46.8023 24.8891 46.7981 24.9469 46.7901C25.0035 46.7815 25.0679 46.7728 25.137 46.7612C25.1203 46.9348 25.1072 47.1844 25.0965 47.5108C25.0858 47.8378 25.0762 48.1981 25.0679 48.5927C25.0596 48.9861 25.0536 49.3917 25.0477 49.8074C25.0429 50.2234 25.0405 50.6043 25.0405 50.9492C25.0405 51.3217 25.0429 51.6564 25.0477 51.9536C25.0536 52.2515 25.0596 52.5558 25.0643 52.8691C24.9565 52.8587 24.851 52.853 24.7485 52.853C24.6508 52.853 24.5483 52.8587 24.4399 52.8691L24.4649 52.0996H24.4488ZM22.2476 51.8328C22.3155 52.043 22.4019 52.2122 22.5068 52.339C22.6129 52.4662 22.7321 52.5534 22.8679 52.6017C23.0032 52.6511 23.1361 52.6747 23.2654 52.6747C23.4763 52.6747 23.6569 52.6222 23.8082 52.5165C23.9584 52.4114 24.0847 52.2741 24.1848 52.1034C24.2849 51.9334 24.3576 51.7404 24.4041 51.5245C24.4494 51.308 24.4726 51.093 24.4726 50.8765C24.4726 50.3577 24.3731 49.9629 24.1729 49.6895C23.9739 49.4173 23.6783 49.2806 23.2898 49.2806C23.095 49.2806 22.9263 49.3253 22.7828 49.414C22.6403 49.5033 22.5217 49.627 22.427 49.7866C22.3329 49.9465 22.2619 50.1329 22.2149 50.3461C22.1696 50.5597 22.1469 50.7875 22.1469 51.0313C22.1469 51.3548 22.1803 51.6216 22.2476 51.8328Z" fill="#007736"/>
<path d="M28.1319 49.5077C28.4476 49.1293 28.9089 48.9404 29.5137 48.9404C29.8003 48.9404 30.047 48.9854 30.255 49.0744C30.4623 49.1635 30.6369 49.2826 30.7788 49.4312C30.9182 49.5795 31.0218 49.7534 31.0898 49.9532C31.1565 50.1528 31.1899 50.366 31.1899 50.5935C31.1899 50.6471 31.1899 50.7002 31.1869 50.7513C31.1839 50.8029 31.1798 50.8553 31.1744 50.9095C30.8824 50.9035 30.594 50.8982 30.308 50.8928C30.022 50.8865 29.733 50.8842 29.4404 50.8842C29.2622 50.8842 29.0853 50.8865 28.9101 50.8928C28.7337 50.8982 28.5567 50.9035 28.3791 50.9095C28.3737 50.936 28.3714 50.9765 28.3714 51.0313V51.1358C28.3714 51.3464 28.4012 51.5432 28.4631 51.7267C28.5257 51.9101 28.6163 52.0688 28.7349 52.2011C28.8541 52.333 28.9994 52.4381 29.1734 52.5164C29.3462 52.5948 29.5458 52.6346 29.7729 52.6346C29.8801 52.6346 29.9916 52.6191 30.1054 52.59C30.218 52.5596 30.3294 52.52 30.4367 52.4679C30.5451 52.417 30.6465 52.3559 30.7418 52.2865C30.8359 52.2156 30.9182 52.14 30.9885 52.0584L31.029 52.084L30.9801 52.4804C30.818 52.6096 30.6166 52.7204 30.3759 52.813C30.1352 52.9045 29.8861 52.9506 29.6263 52.9506C29.3355 52.9506 29.0698 52.9057 28.829 52.8163C28.5883 52.7273 28.3809 52.598 28.2045 52.4274C28.0281 52.2577 27.8935 52.0566 27.7988 51.8243C27.7052 51.5921 27.6575 51.341 27.6575 51.0709C27.6575 50.4068 27.8154 49.8863 28.1319 49.5077ZM29.0227 49.3368C28.885 49.4297 28.7706 49.5435 28.6824 49.6819C28.593 49.8201 28.5257 49.9708 28.4804 50.1349C28.4346 50.3002 28.406 50.4557 28.3952 50.601C28.5633 50.6066 28.7361 50.6123 28.9184 50.6173C29.0996 50.623 29.2747 50.626 29.4488 50.626C29.6263 50.626 29.8086 50.623 29.9916 50.6173C30.1745 50.6123 30.3533 50.6066 30.5267 50.601C30.5267 50.4557 30.5136 50.3011 30.4897 50.1391C30.4659 49.9777 30.4164 49.8258 30.3438 49.6862C30.271 49.5453 30.1697 49.4297 30.0398 49.3368C29.9099 49.2454 29.7395 49.1998 29.5292 49.1998C29.3296 49.1998 29.1615 49.2454 29.0227 49.3368Z" fill="#007736"/>
<path d="M35.4933 49.5965C35.4159 49.5691 35.3354 49.5557 35.2549 49.5557C35.125 49.5557 35.01 49.5861 34.907 49.6453C34.8038 49.7052 34.7174 49.7844 34.6472 49.8842C34.5762 49.9839 34.522 50.1028 34.4851 50.2412C34.4481 50.3776 34.4291 50.5253 34.4291 50.682V51.5733C34.4291 51.9351 34.4302 52.2121 34.4326 52.4035C34.435 52.5948 34.4446 52.7505 34.4601 52.869C34.3528 52.8586 34.2443 52.8529 34.1371 52.8529C34.0179 52.8529 33.9047 52.8586 33.7968 52.869C33.8123 52.6859 33.8213 52.4357 33.8243 52.1198C33.8272 51.8044 33.829 51.4167 33.829 50.9574V50.698C33.829 50.4875 33.8272 50.2448 33.8243 49.969C33.8213 49.6938 33.8123 49.3782 33.7968 49.0214C33.8552 49.0322 33.9131 49.0417 33.9667 49.05C34.0203 49.0584 34.0763 49.0616 34.1371 49.0616C34.1848 49.0616 34.2372 49.0584 34.2897 49.05C34.3451 49.0417 34.4017 49.0322 34.4601 49.0214C34.4398 49.2156 34.4279 49.3699 34.4243 49.4833C34.4219 49.5965 34.4207 49.7052 34.4207 49.8073L34.4362 49.8154C34.7544 49.2326 35.1119 48.9404 35.5052 48.9404C35.5553 48.9404 35.5969 48.9437 35.6327 48.9485C35.6673 48.9538 35.7114 48.9678 35.7656 48.9896C35.7382 49.0539 35.7227 49.1533 35.7161 49.285C35.7114 49.4172 35.709 49.5378 35.709 49.6453L35.653 49.6862C35.6256 49.6533 35.5719 49.6239 35.4933 49.5965Z" fill="#007736"/>
<path d="M38.4089 52.294C38.4667 52.3595 38.5334 52.4196 38.6121 52.4762C38.6896 52.5328 38.779 52.5805 38.8796 52.618C38.9791 52.6561 39.0858 52.6746 39.1996 52.6746C39.3021 52.6746 39.401 52.6585 39.4952 52.6263C39.5899 52.5938 39.674 52.548 39.7455 52.4884C39.8181 52.4291 39.8771 52.3535 39.92 52.2618C39.9636 52.1701 39.985 52.0647 39.985 51.9461C39.985 51.7788 39.9385 51.6495 39.8438 51.5608C39.749 51.4721 39.6316 51.3994 39.4904 51.3416C39.3498 51.2853 39.1972 51.2359 39.028 51.1921C38.8611 51.1498 38.7074 51.0882 38.5668 51.0099C38.4274 50.9321 38.3094 50.8279 38.2153 50.698C38.1199 50.5682 38.0722 50.3907 38.0722 50.1638C38.0722 49.9857 38.102 49.8228 38.1622 49.6727C38.2224 49.5256 38.307 49.3964 38.4214 49.2886C38.5346 49.1807 38.6747 49.0959 38.8421 49.0336C39.0101 48.9711 39.202 48.9404 39.4189 48.9404C39.6186 48.9404 39.7871 48.9678 39.9242 49.0214C40.0612 49.0753 40.1935 49.1239 40.3181 49.1668C40.2752 49.2484 40.234 49.3484 40.1959 49.4673C40.159 49.5861 40.1334 49.6775 40.1232 49.7424H40.0255C39.9826 49.6123 39.8992 49.4967 39.7752 49.3939C39.6513 49.2918 39.4964 49.24 39.3129 49.24C39.2318 49.24 39.1502 49.2537 39.0697 49.2805C38.9887 49.3076 38.9154 49.3484 38.8505 49.4026C38.7861 49.4562 38.7325 49.5268 38.6896 49.6123C38.6449 49.6992 38.6246 49.802 38.6246 49.9208C38.6246 50.0935 38.6717 50.2269 38.7658 50.3219C38.86 50.4163 38.978 50.4905 39.118 50.5441C39.2592 50.598 39.4124 50.6456 39.5804 50.6861C39.7478 50.726 39.9016 50.7829 40.0428 50.8565C40.1828 50.9291 40.2996 51.0313 40.3949 51.1602C40.4879 51.2898 40.5356 51.4681 40.5356 51.6945C40.5356 51.8517 40.5022 52.0048 40.4355 52.1558C40.3682 52.3074 40.2698 52.444 40.1429 52.565C40.016 52.6871 39.864 52.782 39.6859 52.8491C39.5071 52.9161 39.3045 52.9506 39.0769 52.9506C38.8296 52.9506 38.621 52.9256 38.4548 52.8777C38.2856 52.8285 38.1449 52.7719 38.0317 52.7079C38.0651 52.6367 38.0973 52.5408 38.133 52.4197C38.1676 52.2982 38.186 52.1969 38.186 52.1162H38.2832C38.3106 52.1701 38.3523 52.23 38.4089 52.294Z" fill="#007736"/>
<path d="M47.6313 48.353C47.6175 48.0109 47.6027 47.6604 47.5872 47.3042C47.7159 47.3152 47.847 47.3251 47.9799 47.3325C48.1128 47.3408 48.2426 47.3447 48.3725 47.3447C48.4381 47.3447 48.5155 47.3423 48.6085 47.337C48.6997 47.3313 48.7926 47.3277 48.8874 47.3251C48.9821 47.3214 49.0733 47.3182 49.1591 47.3122C49.2455 47.3075 49.3188 47.3042 49.3772 47.3042C49.4588 47.3042 49.5595 47.3075 49.6781 47.3122C49.7967 47.3182 49.9218 47.3346 50.0553 47.3611C50.1864 47.3885 50.3187 47.4281 50.4467 47.482C50.5773 47.5359 50.6953 47.6151 50.8002 47.7172C50.905 47.82 50.9908 47.9486 51.0551 48.1029C51.1201 48.2559 51.1517 48.4462 51.1517 48.6735C51.1517 49.0297 51.0754 49.3188 50.9223 49.5407C50.7679 49.7614 50.5785 49.9341 50.355 50.0582C50.1291 50.183 49.892 50.2667 49.6406 50.3099C49.3891 50.3531 49.1662 50.3745 48.972 50.3745C48.848 50.3745 48.7342 50.3733 48.6323 50.3703C48.5298 50.368 48.4238 50.3614 48.3165 50.3501V50.7962C48.3165 51.1512 48.3237 51.5035 48.3368 51.8487C48.3499 52.195 48.3654 52.5342 48.3809 52.8692C48.2576 52.8588 48.1247 52.8531 47.9846 52.8531C47.8434 52.8531 47.7111 52.8588 47.5872 52.8692C47.6027 52.5342 47.6175 52.195 47.6313 51.8487C47.6456 51.5035 47.6515 51.1512 47.6515 50.7962V49.4028C47.6515 49.0458 47.6456 48.6964 47.6313 48.353ZM48.8909 50.0747C49.0584 50.0747 49.2318 50.0562 49.4094 50.0178C49.5881 49.9805 49.7526 49.9111 49.9009 49.8114C50.0493 49.7113 50.1703 49.5737 50.265 49.399C50.3592 49.2232 50.4068 48.9975 50.4068 48.7217C50.4068 48.49 50.3753 48.3006 50.3103 48.155C50.2448 48.0091 50.1542 47.895 50.038 47.8149C49.9218 47.7336 49.7794 47.6779 49.6131 47.6484C49.4457 47.6193 49.2562 47.6041 49.0459 47.6041H48.3165V50.0097C48.5013 50.0529 48.6907 50.0747 48.8909 50.0747Z" fill="#007736"/>
<path d="M54.6817 47.936C54.6662 48.1412 54.6543 48.3431 54.6459 48.5391C54.6375 48.7368 54.628 48.9352 54.6173 49.1356C54.6769 49.1356 54.7877 49.1335 54.9486 49.1314C55.1119 49.1281 55.2871 49.1219 55.4754 49.1103C55.47 49.1272 55.4676 49.1567 55.4676 49.1999V49.37C55.4676 49.4078 55.47 49.4346 55.4754 49.4513C55.405 49.4459 55.3335 49.4417 55.2578 49.4391C55.181 49.4361 55.0999 49.4346 55.0154 49.4346H54.6173C54.6113 49.4563 54.6054 49.543 54.597 49.6939C54.5887 49.8453 54.5828 50.0245 54.5768 50.2327C54.5708 50.4403 54.5672 50.6576 54.5643 50.8843C54.5613 51.1118 54.5613 51.3143 54.5613 51.4927C54.5613 51.6434 54.5643 51.7914 54.5726 51.9373C54.5804 52.0841 54.6065 52.2146 54.6494 52.3307C54.6924 52.4468 54.7579 52.5401 54.8437 52.6097C54.9295 52.6803 55.0547 52.7154 55.2156 52.7154C55.2608 52.7154 55.318 52.7098 55.3907 52.6994C55.464 52.6887 55.5278 52.6747 55.5814 52.6586V52.853C55.4903 52.8691 55.3884 52.8897 55.2769 52.9132C55.1667 52.9376 55.0606 52.9507 54.957 52.9507C54.6173 52.9507 54.3658 52.8661 54.2044 52.6994C54.0411 52.5323 53.9606 52.2866 53.9606 51.9623C53.9606 51.8158 53.963 51.6585 53.9678 51.488C53.9737 51.3176 53.9815 51.1318 53.9892 50.9292C53.997 50.7261 54.0023 50.5025 54.0083 50.2571C54.0142 50.0114 54.0172 49.7374 54.0172 49.4346H53.7586C53.7139 49.4346 53.6686 49.4361 53.6198 49.4391C53.5715 49.4417 53.5197 49.4459 53.4661 49.4513C53.4708 49.4191 53.4756 49.3872 53.478 49.3584C53.4803 49.3282 53.4833 49.2973 53.4833 49.2643C53.4833 49.2371 53.4803 49.2107 53.478 49.1835C53.4756 49.1567 53.4708 49.1294 53.4661 49.1031C53.7092 49.1186 53.8873 49.1272 54.0011 49.1272C53.9952 49.0195 53.9922 48.8839 53.9892 48.7216C53.9857 48.5597 53.9785 48.3932 53.9678 48.2199L54.6411 47.936H54.6817Z" fill="#007736"/>
<path d="M59.1292 52.3104C59.0339 52.0781 58.9326 51.8339 58.8247 51.5772C58.7169 51.3211 58.6066 51.0587 58.4916 50.791C58.3796 50.5239 58.2723 50.2729 58.1722 50.0379C58.0721 49.8035 57.9839 49.5966 57.9083 49.4191C57.8326 49.2401 57.7765 49.1078 57.7384 49.0215C57.8088 49.0322 57.8731 49.0417 57.9321 49.0501C57.9935 49.0584 58.0518 49.0617 58.1115 49.0617C58.1705 49.0617 58.2306 49.0584 58.289 49.0501C58.3486 49.0417 58.4142 49.0322 58.4845 49.0215C58.6525 49.5406 58.839 50.0528 59.0434 50.5608C59.2484 51.0683 59.4653 51.5921 59.6917 52.1317C59.9194 51.6564 60.1362 51.1499 60.343 50.609C60.5516 50.0695 60.7369 49.5406 60.8989 49.0215C61.0068 49.0486 61.0968 49.0617 61.1671 49.0617C61.2368 49.0617 61.3268 49.0486 61.434 49.0215C61.3959 49.0971 61.3351 49.2258 61.2523 49.406C61.1671 49.5876 61.0682 49.8035 60.9514 50.0543C60.8358 50.3056 60.7083 50.5837 60.5706 50.8887C60.433 51.1939 60.293 51.5069 60.1493 51.8283C60.0063 52.1496 59.8639 52.4679 59.7239 52.7839C59.5839 53.1002 59.4545 53.4001 59.3348 53.6833C59.2162 53.9671 59.1125 54.2232 59.0231 54.4531C58.9337 54.6824 58.8676 54.8647 58.8247 55.0001C58.7169 54.9727 58.6245 54.9596 58.5488 54.9596C58.4731 54.9596 58.382 54.9727 58.2723 55.0001C58.7002 54.2929 59.0619 53.5841 59.3598 52.8777C59.3002 52.7315 59.2233 52.5424 59.1292 52.3104Z" fill="#007736"/>
<path d="M68.3832 48.353C68.37 48.0109 68.3545 47.6604 68.3391 47.3042C68.4087 47.3152 68.4773 47.3251 68.5416 47.3325C68.606 47.3408 68.6709 47.3447 68.7353 47.3447C68.8003 47.3447 68.8652 47.3408 68.9307 47.3325C68.9957 47.3251 69.0624 47.3152 69.1333 47.3042C69.1167 47.6604 69.1018 48.0109 69.088 48.353C69.0755 48.6964 69.0672 49.0458 69.0672 49.4028C69.0672 50.0827 69.0708 50.6726 69.0755 51.1732C69.0815 51.672 69.088 52.1187 69.0928 52.5124C69.476 52.5124 69.8442 52.5092 70.1946 52.5008C70.5456 52.4931 70.9245 52.4618 71.3285 52.4082C71.3023 52.5053 71.2892 52.5854 71.2892 52.6512C71.2892 52.7099 71.3023 52.7831 71.3285 52.8692C71.0807 52.8588 70.8316 52.8531 70.5843 52.8531H69.088C68.8479 52.8531 68.5976 52.8588 68.3391 52.8692C68.3545 52.5342 68.37 52.195 68.3832 51.8487C68.3974 51.5035 68.404 51.1512 68.404 50.7962V49.4028C68.404 49.0458 68.3974 48.6964 68.3832 48.353Z" fill="#007736"/>
<path d="M74.6583 47.936C74.6416 48.1412 74.6303 48.3431 74.6225 48.5391C74.6142 48.7368 74.6046 48.9352 74.594 49.1356C74.6535 49.1356 74.7638 49.1335 74.9252 49.1314C75.0885 49.1281 75.2631 49.1219 75.4526 49.1103C75.4478 49.1272 75.4449 49.1567 75.4449 49.1999V49.37C75.4449 49.4078 75.4478 49.4346 75.4526 49.4513C75.3829 49.4459 75.3096 49.4417 75.2345 49.4391C75.1588 49.4361 75.0772 49.4346 74.9902 49.4346H74.594C74.5874 49.4563 74.582 49.543 74.5731 49.6939C74.5665 49.8453 74.5588 50.0245 74.5528 50.2327C74.5469 50.4403 74.5433 50.6576 74.541 50.8843C74.5385 51.1118 74.5361 51.3143 74.5361 51.4927C74.5361 51.6434 74.5409 51.7914 74.5499 51.9373C74.5576 52.0841 74.5832 52.2146 74.6261 52.3307C74.669 52.4468 74.734 52.5401 74.8198 52.6097C74.9074 52.6803 75.0307 52.7154 75.1934 52.7154C75.2363 52.7154 75.2941 52.7098 75.3674 52.6994C75.4401 52.6887 75.5039 52.6747 75.558 52.6586V52.853C75.4663 52.8691 75.365 52.8897 75.2536 52.9132C75.1434 52.9376 75.0367 52.9507 74.9336 52.9507C74.594 52.9507 74.3425 52.8661 74.1804 52.6994C74.0189 52.5323 73.9373 52.2866 73.9373 51.9623C73.9373 51.8158 73.9397 51.6585 73.9457 51.488C73.9504 51.3176 73.9576 51.1318 73.9659 50.9292C73.9731 50.7261 73.9802 50.5025 73.9868 50.2571C73.9915 50.0114 73.9939 49.7374 73.9939 49.4346H73.7347C73.6918 49.4346 73.6453 49.4361 73.5971 49.4391C73.5482 49.4417 73.4963 49.4459 73.4427 49.4513C73.4487 49.4191 73.4523 49.3872 73.4546 49.3584C73.4582 49.3282 73.4594 49.2973 73.4594 49.2643C73.4594 49.2371 73.4582 49.2107 73.4546 49.1835C73.4523 49.1567 73.4487 49.1294 73.4427 49.1031C73.6858 49.1186 73.864 49.1272 73.9772 49.1272C73.9731 49.0195 73.9671 48.8839 73.9659 48.7216C73.9635 48.5597 73.9563 48.3932 73.9457 48.2199L74.6178 47.936H74.6583Z" fill="#007736"/>
<path d="M80.6003 52.0996C80.5574 52.186 80.4996 52.2791 80.4258 52.3792C80.3536 52.479 80.2613 52.5725 80.1517 52.6586C80.0396 52.7452 79.9091 52.8155 79.7589 52.8691C79.6058 52.9233 79.4312 52.9507 79.2316 52.9507C79.0266 52.9507 78.824 52.9144 78.6268 52.845C78.4302 52.7744 78.2555 52.66 78.1012 52.5007C77.9463 52.3414 77.8218 52.1362 77.7288 51.8855C77.6323 51.6338 77.5858 51.3333 77.5858 50.981C77.5858 50.6367 77.6376 50.3366 77.7401 50.0826C77.842 49.8291 77.9761 49.6168 78.1417 49.4468C78.3056 49.2767 78.4921 49.1501 78.7007 49.0659C78.9081 48.9819 79.1178 48.9405 79.3282 48.9405C79.9288 48.9405 80.3441 49.2106 80.5765 49.7508H80.5932V48.9572C80.5932 48.7523 80.592 48.5451 80.5884 48.3369C80.586 48.1293 80.5837 47.9312 80.5801 47.7419C80.5777 47.5531 80.5753 47.3747 80.5717 47.2067C80.5705 47.0396 80.5658 46.8913 80.561 46.7612C80.6253 46.7728 80.6879 46.7815 80.7463 46.7901C80.8065 46.7981 80.8649 46.8023 80.9251 46.8023C80.9834 46.8023 81.0425 46.7981 81.0985 46.7901C81.1557 46.7815 81.22 46.7728 81.2892 46.7612C81.2737 46.9348 81.2594 47.1844 81.2486 47.5108C81.2391 47.8378 81.2278 48.1981 81.2212 48.5927C81.2123 48.9861 81.2051 49.3917 81.2004 49.8074C81.1945 50.2234 81.192 50.6043 81.192 50.9492C81.192 51.3217 81.1945 51.6564 81.2004 51.9536C81.2051 52.2515 81.2111 52.5558 81.2159 52.8691C81.108 52.8587 81.0025 52.853 80.9013 52.853C80.8035 52.853 80.6998 52.8587 80.5932 52.8691L80.6158 52.0996H80.6003ZM78.4003 51.8328C78.4689 52.043 78.5547 52.2122 78.6601 52.339C78.7656 52.4662 78.8854 52.5534 79.0195 52.6017C79.1548 52.6511 79.2882 52.6747 79.417 52.6747C79.6279 52.6747 79.8084 52.6222 79.961 52.5165C80.1117 52.4114 80.2374 52.2741 80.337 52.1034C80.4365 51.9334 80.5104 51.7404 80.5563 51.5245C80.6027 51.308 80.6253 51.093 80.6253 50.8765C80.6253 50.3577 80.5247 49.9629 80.325 49.6895C80.1254 49.4173 79.8305 49.2806 79.4407 49.2806C79.2471 49.2806 79.0779 49.3253 78.9342 49.414C78.793 49.5033 78.6733 49.627 78.5785 49.7866C78.4844 49.9465 78.4147 50.1329 78.3682 50.3461C78.3223 50.5597 78.2985 50.7875 78.2985 51.0313C78.2985 51.3548 78.333 51.6216 78.4003 51.8328Z" fill="#007736"/>
<path d="M36.7053 13.1374C33.3386 12.1722 32.3632 6.60566 27.7851 7.21172C24.2575 7.67835 23.7236 13.0346 20.6906 14.7836C18.0783 13.1567 18.4495 11.3225 15.8342 10.2799C11.4474 8.53245 8.55145 13.839 5.94209 18.1606C5.05246 17.635 4.16343 17.1109 3.27618 16.5847C6.00409 8.33916 13.3906 2.84772 20.4606 9.09203C23.2934 4.16071 28.6622 1.89324 34.1967 5.7715C36.5075 7.39158 39.3218 10.7201 36.7053 13.1374Z" fill="#007736"/>
<path d="M61.0909 14.0124C56.4746 11.5893 52.9369 7.88548 48.9874 4.67016C45.5326 6.80181 42.3959 9.31135 38.8552 11.343C39.6281 15.6364 38.7551 20.4569 38.8552 25.0225C37.4144 25.2852 36.8114 24.5543 35.4778 24.6889V14.0124C34.8426 13.4311 33.4733 13.7194 33.2266 12.6774C33.3577 9.00702 37.4347 7.40427 39.9814 5.67192C42.9918 3.62279 46.0653 1.79102 48.7062 0C50.7763 0.587867 52.7629 2.97386 56.0242 5.67192C59.5357 8.57667 64.8747 10.1911 61.0909 14.0124Z" fill="#FAE100"/>
<path d="M80.2321 19.1302C75.5276 17.5476 72.8755 13.9169 68.9731 11.5342C66.1462 13.2117 63.5339 15.1009 60.5272 16.5983C61.5675 19.1862 60.6785 24.0823 60.5272 27.2893C59.339 26.9778 58.2188 26.5954 57.1503 26.1633C57.4798 24.054 57.4643 21.6013 57.4316 19.1302C56.9489 18.7749 55.2102 19.4607 54.6173 18.5676C52.9774 15.7016 58.9206 13.731 61.0908 12.3784C64.249 10.4102 66.4573 8.79646 68.4087 7.5957C70.9061 7.61034 72.5614 9.90843 75.4448 12.097C78.3283 14.2835 83.5004 16.1575 80.2321 19.1302Z" fill="#FAE100"/>
<path d="M76.1641 31.6791C76.1641 31.6791 65.8447 27.7577 54.5959 27.1522C43.3481 26.5453 30.5035 29.6484 18.26 25.7058C6.01898 21.7626 3.26007 16.5806 3.26007 16.5806C3.26007 16.5806 4.11218 16.9743 5.96119 18.0818C8.33874 19.5038 12.6058 21.4246 19.6854 22.7707C32.2708 25.1647 39.7812 22.6351 48.0883 22.5881C56.3954 22.5393 58.3081 22.6858 64.8413 24.5461C71.3732 26.4053 76.1641 31.6791 76.1641 31.6791Z" fill="#00529E"/>
</g>
<defs>
<clipPath id="clip0_1292_1160">
<rect width="82" height="55" fill="white" transform="translate(0.5)"/>
</clipPath>
</defs>
</svg>
